<svg xmlns="http://www.w3.org/2000/svg" version="1.1" xmlns:xlink="http://www.w3.org/1999/xlink" xmlns:svgjs="http://svgjs.com/svgjs" width="512" height="512" x="0" y="0" viewBox="0 0 512.004 512.004" style="enable-background:new 0 0 512 512" xml:space="preserve" class=""><g>
<path style="" d="M237.86,77.075c-18.8-68.228-102.455-91.586-154.311-45.62C65.452,47.542,53.957,70.01,51.991,94.958
	c-0.412,5.379-0.258,7.61-0.282,35.421h189.555C240.945,105.281,242.608,94.15,237.86,77.075z" fill="#996123" data-original="#996123" class=""></path>
<path style="" d="M71.283,91.003c5.278-44.393,40.992-78.668,84.654-82.995c-52.086-5.209-99.586,32.983-103.946,86.95
	c-0.412,5.379-0.258,7.61-0.282,35.421h18.899C70.648,101.64,70.357,98.748,71.283,91.003z" fill="#8e551c" data-original="#8e551c" class=""></path>
<path style="" d="M267.258,318.721c-0.325-2.666-0.739-5.173-1.226-7.528c-2.566-12.409-10.045-22.192-20.426-28.533
	l-0.361-0.089c-12.848-7.696-22.187-7.38-65.543-18.931c-1.654-0.749-2.8-3.214-2.8-6.024v-27.699
	c-18.447,8.162-40.752,8.746-60.468,0.159v27.541c0,2.81-1.146,5.275-2.8,6.024c-43.067,11.473-52.645,11.205-65.543,18.931
	l-0.361,0.089c-14.272,8.717-19.758,20.528-21.652,36.061L9.061,470.785c-1.704,19.714,8.745,33.719,27.56,33.719l0,0
	c45.651,0,173.424,0,220.096,0c18.271,0,28.124-13.918,27.749-28.303C284.567,470.285,285.021,478.858,267.258,318.721z" fill="#eab883" data-original="#eab883" class=""></path>
<path style="" d="M33.871,476.201c-0.1-5.788-0.416,1.617,17.207-167.48c1.799-14.752,5.819-24.23,19-34.238
	c-2.676,0.829-12.019,2.117-21.987,8.088l-0.361,0.089c-14.272,8.716-19.758,20.529-21.652,36.061L9.061,470.785
	c-1.705,19.714,8.746,33.719,27.56,33.719l0,0h25C43.596,504.504,33.558,490.941,33.871,476.201z" fill="#d8a373" data-original="#d8a373" class=""></path>
<path style="" d="M267.258,318.721c-0.325-2.666-0.739-5.173-1.226-7.528c-2.566-12.409-10.045-22.192-20.426-28.533
	l-0.361-0.089c-12.365-7.407-22.016-7.428-51.338-15.395c-22.908,32.96-71.562,32.971-94.478,0
	c-29.8,8.096-39.05,8.034-51.338,15.395l-0.361,0.089c-14.272,8.717-19.758,20.528-21.652,36.061l-8.09,72.287h53.801l-6,113.496
	c22.227,0,126.275,0,161.757,0l-6-113.496h53.801L267.258,318.721z" fill="#748095" data-original="#70bbef" class=""></path>
<path style="" d="M17.988,391.008h24.449l8.64-82.287c1.799-14.752,5.819-24.23,19-34.238
	c-2.907,0.894-11.84,2.009-21.987,8.088l-0.361,0.089c-3.283,2.006-8.243,5.904-11.835,10.302
	C24.237,307.233,27.043,317.41,17.988,391.008z" fill="#656f81" data-original="#4caee5" class=""></path>
<g>
	<path style="" d="M245.981,136.854c0,10.923-11.573,19.776-24.616,19.776v-39.551
		C234.407,117.079,245.981,125.932,245.981,136.854z" fill="#eab883" data-original="#eab883" class=""></path>
	<path style="" d="M46.991,136.854c0,10.923,11.573,19.776,24.617,19.776v-39.551
		C58.565,117.079,46.991,125.932,46.991,136.854z" fill="#eab883" data-original="#eab883" class=""></path>
</g>
<g>
	<path style="" d="M221.365,139.626v17.005c17.222,0,30.32-14.931,22.136-28.278
		C239.414,135.019,230.772,139.626,221.365,139.626z" fill="#d8a373" data-original="#d8a373" class=""></path>
	<path style="" d="M49.471,128.352c-8.252,13.46,5.062,28.278,22.137,28.278v-17.005
		C62.2,139.626,53.558,135.019,49.471,128.352z" fill="#d8a373" data-original="#d8a373" class=""></path>
</g>
<path style="" d="M220.425,273.778l-26.518-6.602c-22.908,32.96-71.562,32.971-94.478,0l-26.518,6.602
	C104.982,331.64,188.266,331.799,220.425,273.778z" fill="#95a6c5" data-original="#95dbf9" class=""></path>
<path style="" d="M100.184,268.229c-0.254-0.349-0.508-0.698-0.755-1.053l-26.518,6.602
	c21.471,38.739,68.576,53.728,107.889,36.281C147.344,313.057,116.358,296.212,100.184,268.229z" fill="#acbcdb" data-original="#7ed0ed" class=""></path>
<path style="" d="M120.026,285.364l12.235-3.675c5.769-1.733,9.719-7.043,9.719-13.067v-32.495
	c-9.217-0.54-17.784-2.673-25.547-6.052v27.541c0,2.81-1.146,5.274-2.8,6.024l-14.204,3.536
	C104.712,274.777,111.781,281.04,120.026,285.364z" fill="#d8a373" data-original="#d8a373" class=""></path>
<path style="" d="M218.515,111.589c-1.173-0.282-2.096-0.587-2.233-0.628l0,0c-7.164-2.29-19.539-8.888-29.447-27.901
	c-2.012-3.861-7.589-3.766-9.458,0.166c-9.106,19.152-45.703,45.697-101.717,30.375c-2.478-0.678-5.052,1.133-5.052,3.878
	C71.181,153,59.284,221.832,130.012,237.483c39.926,8.833,79.017-15.414,89.616-53.89c3.751-13.612,2.53-15.796,2.739-66.115
	C222.367,113.973,220.252,112.343,218.515,111.589z" fill="#f7cf9c" data-original="#f7cf9c" class=""></path>
<path style="" d="M127.793,225.429c-39.2-27.628-32.01-65.259-32.185-107.95c0-0.005,0-0.009,0-0.014
	c-6.34-0.706-12.994-1.962-19.949-3.864c-2.478-0.678-5.051,1.133-5.051,3.878c0.621,38.456-10.233,95.911,50.485,117.434
	c11.832,4.204,24.725,5.501,37.895,3.317C157.691,238.015,136.811,231.798,127.793,225.429z" fill="#eab883" data-original="#eab883" class=""></path>
<path style="" d="M437.625,41.387C389.692-15.66,294,2.132,273.547,77.47c-4.685,17.299-3.239,30.661-3.297,52.909
	h189.555v-28.066C459.806,63.683,436.408,39.584,437.625,41.387z" fill="#996123" data-original="#996123" class=""></path>
<path style="" d="M290.934,83.953c7.927-40.388,41.592-71.788,83.545-75.946
	c-46.253-4.625-88.865,24.959-100.931,69.462c-4.638,17.123-3.237,29.985-3.297,52.909h18.899
	C289.306,103.472,288.443,96.644,290.934,83.953z" fill="#8e551c" data-original="#8e551c" class=""></path>
<path style="" d="M485.801,318.721c-1.796-14.728-6.974-27.095-21.652-36.061l-0.361-0.089
	c-12.848-7.696-22.187-7.38-65.543-18.931c-1.655-0.749-2.8-3.214-2.8-6.024v-27.699c-18.995,8.404-41.367,8.478-60.469,0.159
	v27.541c0,2.81-1.146,5.275-2.8,6.024c-43.066,11.473-52.645,11.205-65.543,18.931l-0.361,0.089
	c-14.755,9.013-19.87,21.445-21.652,36.061c-18.135,163.495-17.207,150.591-17.207,157.515
	c-0.153,11.263,6.756,28.268,27.749,28.268c65.429,0,122.414,0,220.096,0c18.271,0,28.124-13.918,27.749-28.303
	C503.109,470.285,503.563,478.858,485.801,318.721z" fill="#eab883" data-original="#eab883" class=""></path>
<path style="" d="M252.414,476.201c-0.1-5.788-0.416,1.617,17.207-167.48c1.799-14.752,5.819-24.23,19-34.238
	c-2.676,0.829-12.019,2.117-21.988,8.088l-0.361,0.089c-14.757,9.013-19.87,21.448-21.652,36.061
	c-18.137,163.508-17.207,150.601-17.207,157.515c-0.153,11.263,6.756,28.268,27.749,28.268c15.475,0,9.523,0,25,0
	C262.138,504.504,252.1,490.941,252.414,476.201z" fill="#d8a373" data-original="#d8a373" class=""></path>
<path style="" d="M485.801,318.721c-1.796-14.728-6.974-27.095-21.652-36.061l-0.361-0.089
	c-12.365-7.407-22.016-7.428-51.338-15.395c-22.908,32.96-71.562,32.971-94.478,0c-29.8,8.096-39.05,8.034-51.338,15.395
	l-0.361,0.089c-14.755,9.013-19.87,21.445-21.652,36.061l-8.09,72.287h53.801l-6,113.496c22.227,0,126.275,0,161.757,0l-6-113.496
	h53.802L485.801,318.721z" fill="#a0ada0" data-original="#7ebc7e" class=""></path>
<path style="" d="M236.531,391.008h24.449l8.64-82.287c1.799-14.752,5.819-24.23,19-34.238
	c-1.957,0.669-11.744,1.952-21.988,8.088l-0.361,0.089c-10.313,6.302-17.853,16.093-20.426,28.533
	C244.222,319.043,244.197,324.101,236.531,391.008z" fill="#858f85" data-original="#5eaa5e" class=""></path>
<g>
	<path style="" d="M464.523,136.854c0,10.923-11.573,19.776-24.616,19.776v-39.551
		C452.949,117.079,464.523,125.932,464.523,136.854z" fill="#eab883" data-original="#eab883" class=""></path>
	<path style="" d="M265.533,136.854c0,10.923,11.573,19.776,24.617,19.776v-39.551
		C277.107,117.079,265.533,125.932,265.533,136.854z" fill="#eab883" data-original="#eab883" class=""></path>
</g>
<g>
	<path style="" d="M439.907,139.626v17.005c17.222,0,30.32-14.931,22.136-28.278
		C457.956,135.019,449.314,139.626,439.907,139.626z" fill="#d8a373" data-original="#d8a373" class=""></path>
	<path style="" d="M268.013,128.352c-8.252,13.46,5.062,28.278,22.137,28.278v-17.005
		C280.742,139.626,272.101,135.019,268.013,128.352z" fill="#d8a373" data-original="#d8a373" class=""></path>
</g>
<path style="" d="M438.967,273.778l-26.518-6.602c-22.908,32.96-71.562,32.971-94.478,0l-26.518,6.602
	C323.524,331.64,406.809,331.799,438.967,273.778z" fill="#acbdac" data-original="#9ad89a" class=""></path>
<path style="" d="M318.726,268.229c-0.254-0.349-0.508-0.698-0.755-1.053l-26.518,6.602
	c21.471,38.739,68.576,53.728,107.889,36.281C365.886,313.057,334.9,296.212,318.726,268.229z" fill="#bec9be" data-original="#91ce91" class=""></path>
<path style="" d="M338.569,285.364l12.235-3.675c5.769-1.733,9.719-7.043,9.719-13.067v-32.495
	c-9.166-0.537-17.809-2.684-25.547-6.052v27.541c0,2.81-1.146,5.274-2.8,6.024l-14.204,3.536
	C323.254,274.777,330.323,281.04,338.569,285.364z" fill="#d8a373" data-original="#d8a373" class=""></path>
<path style="" d="M437.057,111.589c-0.668-0.161-1.416-0.367-2.23-0.628h-0.003l0,0
	c-7.164-2.29-19.539-8.888-29.447-27.901c-2.012-3.861-7.589-3.766-9.458,0.166c-9.106,19.152-45.703,45.697-101.717,30.375
	c-2.478-0.678-5.052,1.133-5.052,3.878v45.919c0,96.191,139.235,101.415,151.126,9.853c1.185-9.134,0.35-12.984,0.634-55.772
	C440.91,113.973,438.794,112.343,437.057,111.589z" fill="#f7cf9c" data-original="#f7cf9c" class=""></path>
<path style="" d="M341.526,221.747c-17.041-14.184-27.376-35.273-27.376-58.349c0-5.732,0-40.175,0-45.933
	c-6.34-0.706-12.994-1.962-19.949-3.864c-2.478-0.678-5.051,1.133-5.051,3.878v45.919c0,46.661,41.845,82.549,88.38,74.832
	C375.61,237.912,352.595,230.964,341.526,221.747z" fill="#eab883" data-original="#eab883" class=""></path>
<path d="M475.183,512.004c23.45,0,37.837-18.755,35.013-42.054l-17.025-152.137c-0.342-2.798-0.788-5.536-1.326-8.14
	c-3.324-16.07-14.014-29.928-32.56-37.71c-6.187-2.596-3.693-1.758-56.415-14.882v-19.414c3.15-2.028,31.232-14.708,41.923-50.154
	c3.179-10.516,3.22-17.122,3.543-24.19c20.515-4.47,30.047-25.255,18.893-40.888c0.112-17.405,0.964-30.259-3.557-46.938
	l-0.113-0.416c-2.841-10.309-7.287-20.088-13.217-29.065c-2.283-3.456-6.936-4.408-10.392-2.124
	c-3.456,2.282-4.407,6.935-2.124,10.392c8.328,12.608,10.654,23.161,11.371,25.149c3.307,12.195,3.009,20.489,3.034,32.049
	c-1.914-0.663-3.918-1.163-5.994-1.484c-3.12-4.951-7.807-5.736-9.202-6.182c-5.583-1.785-16.266-7.307-25.081-24.224
	c-4.902-9.409-18.383-9.053-22.883,0.411c-7.109,14.952-39.186,41.073-92.964,26.361c-4.173-1.14-8.658,0.093-11.677,3.518
	c-2.348,0.309-4.607,0.855-6.753,1.599c0.713-2.667-5.92-43.098,29.367-74.462l0,0l0.095-0.084
	c30.058-26.617,74.251-29.333,107.855-6.131c3.894,2.928,8.567,1.756,10.863-1.476c2.398-3.378,1.604-8.06-1.772-10.458
	c-0.485-0.333-0.171-0.183-3.39-2.321c-58.339-38-136.221-7.254-154.345,58.527c-4.204,17.391-3.834,21.986-3.671,47.356
	c-11.161,15.641-1.614,36.422,18.897,40.888c1.172,36.656,20.431,61.638,45.826,74.521v19.236
	c-44.655,11.116-57.254,12.205-71.445,23.786c-7.007-5.72-16.289-10.029-23.426-11.832c-58.518-14.567-13.617-3.39-48.021-11.954
	v-19.414c0.926-0.635,9.519-4.145,20.874-15.157c25.958-25.75,24.196-56.963,24.592-59.188c20.513-4.47,30.048-25.252,18.894-40.886
	c0.118-18.875,0.135-24.666-0.642-31.598c-0.279-0.837-1.771-30.448-25.284-56.574C161.59-34.548,48.161,7.255,44.417,97.891
	l-0.034,0.867c-0.04,1.182-0.067,2.364-0.067,3.555c0.001,6.583-0.002,19.324,0.003,20.123
	c-11.161,15.641-1.614,36.422,18.897,40.888v0.073c0,31.96,18.066,60.372,45.826,74.448v19.236c0.1-0.025-21.465,5.343-37.838,9.419
	c-1.63,0.913-43.274,5.159-51.137,43.173c-0.538,2.604-0.984,5.342-1.334,8.214l-8.09,72.287c0,0.001,0,0.001,0,0.001
	C1.053,475.872,1.401,471,1.479,476.194c-0.227,19.149,13.14,35.81,35.25,35.81h63.953c4.143,0,7.5-3.357,7.5-7.5
	s-3.357-7.5-7.5-7.5h-26.57l7.436-140.671c0.219-4.136-2.957-7.666-7.094-7.885c-4.141-0.232-7.667,2.957-7.885,7.094l-1.478,27.966
	H26.48c7.56-67.553,7.205-65.627,8.274-70.796c3.182-15.386,14.939-24.771,30.024-29.154l4.658-1.16
	c16.809,26.274,45.929,42.371,77.337,42.371c31.409,0,60.529-16.098,77.338-42.371c0.565,0.248,12.203,2.123,21.686,9.544
	c-9.421,14.038-8.097,21.968-16.05,91.566h-0.981l-1.479-27.966c-0.218-4.137-3.772-7.327-7.885-7.094
	c-4.137,0.219-7.313,3.749-7.094,7.885l7.437,140.671h-84.066c-4.143,0-7.5,3.357-7.5,7.5s3.357,7.5,7.5,7.5
	c11.017,0,174.926,0,185.746,0c4.143,0,7.5-3.357,7.5-7.5s-3.357-7.5-7.5-7.5h-28.954l7.436-140.671
	c0.219-4.136-2.957-7.666-7.094-7.885c-4.128-0.232-7.666,2.957-7.885,7.094l-1.478,27.966h-38.609
	c8.167-71.169,6.173-75.083,16.645-87.309c10.233-11.162,25.626-13.487,26.311-13.801c16.809,26.274,45.929,42.371,77.337,42.371
	c31.409,0,60.529-16.098,77.338-42.371c1.254,0.372,11.578,2.212,20.414,8.588c7.617,5.468,12.418,12.777,14.269,21.726
	c0.455,2.2,0.834,4.527,1.117,6.843l7.157,63.953h-38.302l-1.479-27.966c-0.219-4.137-3.76-7.327-7.885-7.094
	c-4.137,0.219-7.313,3.749-7.094,7.885l7.437,140.671h-81.68c-4.143,0-7.5,3.357-7.5,7.5s3.357,7.5,7.5,7.5L475.183,512.004
	L475.183,512.004z M63.989,398.508l-5.206,98.496H36.726c-6.084,0-10.93-1.785-14.404-5.307c-5.265-5.338-6.327-12.681-5.69-20.177
	l8.17-73.013h39.187V398.508z M335.194,270.472c4.378-1.982,7.207-7.028,7.207-12.855v-13.941
	c14.609,4.091,29.998,4.23,45.468-0.102v14.043c0,7.112,4.131,12.21,8.489,13.302l2.276,0.567
	c-19.074,17.224-47.924,17.225-66.999,0C333.599,270.97,334.219,270.915,335.194,270.472z M448.335,147.667v-21.624
	C459.791,130.767,459.791,142.94,448.335,147.667z M281.575,126.04v21.628C270.114,142.943,270.112,130.767,281.575,126.04z
	 M299.218,182.242c-3.577-12.817-2.46-15.217-2.643-60.269c31.088,7.479,54.477,2.221,68.854-3.696
	c15.515-6.385,28.361-16.716,35.207-28.143c9.322,16.043,21.45,24.886,32.695,28.237c0,3.742-0.001-15.055,0.003,45.026
	c0,38.243-31.53,69.449-70.371,68.345C330.143,230.101,306.23,208.414,299.218,182.242z M116.834,270.472
	c4.378-1.982,7.207-7.028,7.207-12.855v-13.941c14.72,4.121,30.237,4.163,45.468-0.102v14.043c0,7.112,4.131,12.21,8.489,13.302
	l2.276,0.567c-19.074,17.224-47.924,17.225-66.999,0C115.239,270.97,115.858,270.915,116.834,270.472z M229.974,147.667v-21.624
	c5.076,2.093,8.613,6.205,8.613,10.811S235.05,145.573,229.974,147.667z M98.794,29.283c40.694-25.349,87.169-14.503,113.001,15.02
	c26.708,29.971,21.458,62.961,22.076,67.181c-1.914-0.663-3.919-1.164-5.995-1.484c-1.887-2.994-5.087-5.126-7.497-5.702
	c-11.807-2.84-21.128-13.847-26.786-24.704c-2.254-4.328-6.671-6.995-11.575-6.872c-4.882,0.089-9.214,2.88-11.308,7.283
	c-7.11,14.954-39.191,41.071-92.964,26.361c-3.489-0.953-7.138-0.242-10.017,1.952c-0.615,0.469-1.162,1-1.661,1.566
	c-2.348,0.309-4.607,0.855-6.753,1.599C59.809,109.248,53.108,59.19,98.794,29.283z M63.215,126.04v21.628
	C51.754,142.943,51.752,130.767,63.215,126.04z M78.215,163.398c0-8.297,0-27.078,0-41.425
	c49.854,11.994,89.548-7.61,104.062-31.839c10.988,18.911,24.497,25.626,31.827,27.971c0.039,0.013,0.078,0.024,0.118,0.036
	c0.25,0.08,0.501,0.157,0.75,0.23c0.004,50.49,0.256,49.485-1.005,56.796c-4.157,23.958-19.234,36.44-19.646,37.198
	c-0.644,0.628-1.299,1.243-1.957,1.836c-0.689,0.331-15.97,16.261-42.537,17.499c-0.101,0.002-3.332,0.07-3.231,0.069
	c-0.101-0.001-0.942-0.007-0.841-0.006C109.092,231.486,78.215,201.404,78.215,163.398z M146.774,309.77
	c-24.553,0-47.437-11.758-61.809-31.237l11.584-2.884c25.991,31.62,74.4,31.694,100.452,0l11.584,2.884
	C194.213,298.012,171.327,309.77,146.774,309.77z M282.349,398.508l-5.206,98.496c-17.707-0.958-28.519,2.743-36.46-5.307
	c-5.254-5.326-6.332-12.638-5.691-20.177l8.171-73.013h39.186V398.508z M303.325,278.533l11.584-2.884
	c25.991,31.62,74.4,31.694,100.452,0l11.584,2.884C396.29,320.081,334.081,320.219,303.325,278.533z M487.108,398.508l8.17,73.011
	c0.128,1.529,0.18,3.061,0.154,4.554c-0.002,0.104-0.001,0.209,0.001,0.314c0.05,4.496-1.459,10.864-5.846,15.311
	c-7.946,8.054-18.712,4.346-36.461,5.307l-5.206-98.496L487.108,398.508L487.108,398.508z" fill="#000000" data-original="#000000" class=""></path>
<g>
</g>
<g>
</g>
<g>
</g>
<g>
</g>
<g>
</g>
<g>
</g>
<g>
</g>
<g>
</g>
<g>
</g>
<g>
</g>
<g>
</g>
<g>
</g>
<g>
</g>
<g>
</g>
<g>
</g>
</g></svg>